# xmcd
#
# Track frame offsets: 
#        150
#        16538
#        34127
#        49554
#        67230
#        89354
#        112456
#        130585
#        135141
#        154470
#        174828
#        196848
#        217147
#
# Disc length: 3066 seconds
#
# Revision: 2
# Processed by: cddbd v1.5.2PL0 Copyright (c) Steve Scherf et al.
# Submitted via: ExactAudioCopy v1.0b3
#
DISCID=b00bf80d
DTITLE=Laleh - Me And Simon
DYEAR=2009
DGENRE=Pop
TTITLE0=Big City Love
TTITLE1=Simon Says
TTITLE2=Mysteries
TTITLE3=Go Go
TTITLE4=Roses
TTITLE5=The End
TTITLE6=Nation
TTITLE7=History
TTITLE8=Farda
TTITLE9=Snö
TTITLE10=Bjurö Klubb
TTITLE11=Svalorna
TTITLE12=Lär Mig Om
EXTD=
EXTT0=
EXTT1=
EXTT2=
EXTT3=
EXTT4=
EXTT5=
EXTT6=
EXTT7=
EXTT8=
EXTT9=
EXTT10=
EXTT11=
EXTT12=
PLAYORDER=
